<svg xmlns="http://www.w3.org/2000/svg" viewBox="0 0 225 225"><g fill="none" stroke="gray" stroke-width="2"><path d="M224.32 112.5A111.83 111.83 0 0 0 112.49.67 111.83 111.83 0 0 0 .66 112.5a111.83 111.83 0 0 0 111.83 111.83A111.83 111.83 0 0 0 224.32 112.5" vector-effect="non-scaling-stroke"/><path d="M140.06 11.08c-17.86-5.07-37.75-4.82-55.21.07q-.5.14-.37.64l9.46 35.23q.13.48.63.48h35.7q.55 0 .69-.53l9.47-35.24a.53.53 0 0 0-.37-.65M30.75 47.49l48.81.24a.44.44 0 0 0 .42-.55l-8.21-30.64a.77.76-19.4 0 0-1.05-.5Q46.87 26.58 30.48 46.86q-.5.63.27.63M194.76 47.19c-10.93-13.52-24.81-24.35-40.72-31.2a.68.68 0 0 0-.92.45l-7.97 29.94q-.36 1.36 1.05 1.36l48.29.01a.34.34 0 0 0 .27-.56M198.51 56.25H27.31a.16.16 0 0 0-.08.3Q45.36 67.2 63.72 77.74q1.81 1.04 3.91 1.04 46.15-.06 91.44-.02a6.94 6.9 29.9 0 0 3.45-.92l36.19-20.85a.4.4 0 0 0-.2-.74M59.52 87.65 21.16 65.59a.31.31 0 0 0-.42.42l85.98 148.95a.31.31 0 0 0 .57-.15q.23-20.3.28-40.97 0-2.1-1.03-3.92-23.42-41.31-46.95-82.2a.35.35 0 0 0-.07-.07M167.6 87.38c-1.51.89-2.21 2.2-3.05 3.65q-22.96 39.73-45.56 78.73a7.37 7.32-30.1 0 0-.99 3.68v40.72a.33.33 0 0 0 .61.16q41.75-72.4 83.8-144.95.81-1.39 1.77-2.51a.24.24 0 0 0-.3-.37q-18.25 10.38-36.28 20.89M14.6 74.29q-9.49 24.58-6.51 50.85.12 1.01 1.1.75l30.77-8.19q.58-.15.28-.67L15.55 74.21q-.55-.95-.95.08M185.52 116.68l30.55 8.19a.66.65 10.3 0 0 .82-.56q2.85-26.11-6.7-50.43-.2-.53-.49-.04l-24.43 42.35a.36.32 21.5 0 0 .25.49M145.37 94.49a.34.34 0 0 0-.29-.51l-64.21-.45a.34.34 0 0 0-.3.51l31.71 56.93a.34.34 0 0 0 .59 0l32.5-56.48M213.76 138.23l-34.51-9.25a1.6 1.6 0 0 0-1.8.74l-17.08 29.48q-.56.97.23 1.76l25.56 25.58q.37.37.74 0 20.01-20.11 27.28-47.57a.6.6 0 0 0-.42-.74M47.06 129.74l-35.72 9.61a.45.44 75.5 0 0-.31.54q7.65 27.43 27.75 47.53.34.34.67 0l25.86-25.85a.83.83 0 0 0 .13-1l-17.68-30.54a.62.61 67.2 0 0-.7-.29M175.69 195.35l-22.42-22.54q-.44-.45-.76.1l-24.83 42.96q-.36.63.36.52 26.34-4.03 47.58-19.98.64-.48.07-1.06M50.26 197.11q20.92 15.21 46.52 19.33a.44.44 0 0 0 .45-.66l-24.18-41.85q-.31-.54-.75-.1l-22.13 22.13q-.63.63.09 1.15" vector-effect="non-scaling-stroke"/></g><path fill="#fff" d="M0 0h225v225H0V0Zm224.32 112.5A111.83 111.83 0 0 0 112.49.67 111.83 111.83 0 0 0 .66 112.5a111.83 111.83 0 0 0 111.83 111.83A111.83 111.83 0 0 0 224.32 112.5Z"/><path d="M224.32 112.5a111.83 111.83 0 0 1-111.83 111.83A111.83 111.83 0 0 1 .66 112.5 111.83 111.83 0 0 1 112.49.67 111.83 111.83 0 0 1 224.32 112.5ZM140.06 11.08c-17.86-5.07-37.75-4.82-55.21.07q-.5.14-.37.64l9.46 35.23q.13.48.63.48h35.7q.55 0 .69-.53l9.47-35.24a.53.53 0 0 0-.37-.65ZM30.75 47.49l48.81.24a.44.44 0 0 0 .42-.55l-8.21-30.64a.77.76-19.4 0 0-1.05-.5Q46.87 26.58 30.48 46.86q-.5.63.27.63Zm164.01-.3c-10.93-13.52-24.81-24.35-40.72-31.2a.68.68 0 0 0-.92.45l-7.97 29.94q-.36 1.36 1.05 1.36l48.29.01a.34.34 0 0 0 .27-.56Zm3.75 9.06H27.31a.16.16 0 0 0-.08.3Q45.36 67.2 63.72 77.74q1.81 1.04 3.91 1.04 46.15-.06 91.44-.02a6.94 6.9 29.9 0 0 3.45-.92l36.19-20.85a.4.4 0 0 0-.2-.74ZM59.52 87.65 21.16 65.59a.31.31 0 0 0-.42.42l85.98 148.95a.31.31 0 0 0 .57-.15q.23-20.3.28-40.97 0-2.1-1.03-3.92-23.42-41.31-46.95-82.2a.35.35 0 0 0-.07-.07Zm108.08-.27c-1.51.89-2.21 2.2-3.05 3.65q-22.96 39.73-45.56 78.73a7.37 7.32-30.1 0 0-.99 3.68v40.72a.33.33 0 0 0 .61.16q41.75-72.4 83.8-144.95.81-1.39 1.77-2.51a.24.24 0 0 0-.3-.37q-18.25 10.38-36.28 20.89Zm-153-13.09q-9.49 24.58-6.51 50.85.12 1.01 1.1.75l30.77-8.19q.58-.15.28-.67L15.55 74.21q-.55-.95-.95.08Zm170.92 42.39 30.55 8.19a.66.65 10.3 0 0 .82-.56q2.85-26.11-6.7-50.43-.2-.53-.49-.04l-24.43 42.35a.36.32 21.5 0 0 .25.49Zm-40.15-22.19a.34.34 0 0 0-.29-.51l-64.21-.45a.34.34 0 0 0-.3.51l31.71 56.93a.34.34 0 0 0 .59 0l32.5-56.48Zm68.39 43.74-34.51-9.25a1.6 1.6 0 0 0-1.8.74l-17.08 29.48q-.56.97.23 1.76l25.56 25.58q.37.37.74 0 20.01-20.11 27.28-47.57a.6.6 0 0 0-.42-.74Zm-166.7-8.49-35.72 9.61a.45.44 75.5 0 0-.31.54q7.65 27.43 27.75 47.53.34.34.67 0l25.86-25.85a.83.83 0 0 0 .13-1l-17.68-30.54a.62.61 67.2 0 0-.7-.29Zm128.63 65.61-22.42-22.54q-.44-.45-.76.1l-24.83 42.96q-.36.63.36.52 26.34-4.03 47.58-19.98.64-.48.07-1.06Zm-125.43 1.76q20.92 15.21 46.52 19.33a.44.44 0 0 0 .45-.66l-24.18-41.85q-.31-.54-.75-.1l-22.13 22.13q-.63.63.09 1.15Z"/><path fill="#fff" d="M84.85 11.15c17.46-4.89 37.35-5.14 55.21-.07a.53.53 0 0 1 .37.65l-9.47 35.24q-.14.53-.69.53h-35.7q-.5 0-.63-.48l-9.46-35.23q-.13-.5.37-.64ZM79.56 47.73l-48.81-.24q-.77 0-.27-.63 16.39-20.28 40.24-30.82a.77.76-19.4 0 1 1.05.5l8.21 30.64a.44.44 0 0 1-.42.55ZM154.04 15.99c15.91 6.85 29.79 17.68 40.72 31.2a.34.34 0 0 1-.27.56l-48.29-.01q-1.41 0-1.05-1.36l7.97-29.94a.68.68 0 0 1 .92-.45ZM198.51 56.25a.4.4 0 0 1 .2.74l-36.19 20.85a6.94 6.9 29.9 0 1-3.45.92q-45.29-.04-91.44.02-2.1 0-3.91-1.04Q45.36 67.2 27.23 56.55a.16.16 0 0 1 .08-.3h171.2ZM59.52 87.65a.35.35 0 0 1 .07.07q23.53 40.89 46.95 82.2 1.03 1.82 1.03 3.92-.05 20.67-.28 40.97a.31.31 0 0 1-.57.15L20.74 66.01a.31.31 0 0 1 .42-.42l38.36 22.06ZM164.55 91.03c.84-1.45 1.54-2.76 3.05-3.65q18.03-10.51 36.28-20.89a.24.24 0 0 1 .3.37q-.96 1.12-1.77 2.51-42.05 72.55-83.8 144.95a.33.33 0 0 1-.61-.16v-40.72a7.37 7.32-30.1 0 1 .99-3.68q22.6-39 45.56-78.73ZM15.55 74.21l24.69 42.82q.3.52-.28.67l-30.77 8.19q-.98.26-1.1-.75-2.98-26.27 6.51-50.85.4-1.03.95-.08ZM216.07 124.87l-30.55-8.19a.36.32 21.5 0 1-.25-.49l24.43-42.35q.29-.49.49.04 9.55 24.32 6.7 50.43a.66.65 10.3 0 1-.82.56ZM145.37 94.49l-32.5 56.48a.34.34 0 0 1-.59 0L80.57 94.04a.34.34 0 0 1 .3-.51l64.21.45a.34.34 0 0 1 .29.51ZM213.76 138.23a.6.6 0 0 1 .42.74q-7.27 27.46-27.28 47.57-.37.37-.74 0l-25.56-25.58q-.79-.79-.23-1.76l17.08-29.48a1.6 1.6 0 0 1 1.8-.74l34.51 9.25ZM47.06 129.74a.62.61 67.2 0 1 .7.29l17.68 30.54a.83.83 0 0 1-.13 1l-25.86 25.85q-.33.34-.67 0-20.1-20.1-27.75-47.53a.45.44 75.5 0 1 .31-.54l35.72-9.61ZM175.69 195.35q.57.58-.07 1.06-21.24 15.95-47.58 19.98-.72.11-.36-.52l24.83-42.96q.32-.55.76-.1l22.42 22.54ZM50.26 197.11q-.72-.52-.09-1.15l22.13-22.13q.44-.44.75.1l24.18 41.85a.44.44 0 0 1-.45.66q-25.6-4.12-46.52-19.33Z"/></svg>